PathFileType	4	(X/Y/Z)	Kaydara																																																																																																																																																																																																																												
DataRate	CameraRate	NumFrames	NumMarkers	Units	OrigDataRate	OrigDataStartFrame	OrigNumFrames																																																																																																																																																																																																																								
60	60	4	74	mm	60	1101	201																																																																																																																																																																																																																								
Frame#	Time	N_lasi			N_rasi			N_rpsi			N_lpsi			N_fneck			N_bneck			N_fhead			N_rhead			N_lhead			N_rshld			N_relbtop			N_relbext			N_relblow			N_rwrext			N_rwrtop			N_rwrlow			N_lshld			N_lelblow			N_lelbtop			N_lwrext			N_lwrtop			N_lwrlow			N_rtopleg			N_ltopleg			N_rkneefr			N_rkneebk			N_rkneeis			N_lkneefr			N_lknssbk			N_lkneeis			N_rankfr			N_rankis			N_rankbk			N_lankfr			N_lankbk			N_lankis			D_lasi			D_rasi			D_lpsi			D_fneck			D_bneck			D_fhead			D_rhead			D_lhead			D_rshld			D_relbtop			D_relbext			D_relblow			D_rwrext			D_rwrtop			D_rwrlow			D_lshld			D_lelbext			D_lelblow			D_lelbtop			D_lwrext			D_lwrtop			D_lwrlow			D_rtopleg			D_ltopleg			D_rkneefr			D_rkneebk			D_rkneeis			D_lkneefr			D_lknssbk			D_lkneeis			D_rankfr			D_rankis			D_rankbk			D_lankfr			D_lankbk			D_lankis			D_rpsi			N_lelbext		
		X1	Y1	Z1	X2	Y2	Z2	X3	Y3	Z3	X4	Y4	Z4	X5	Y5	Z5	X6	Y6	Z6	X7	Y7	Z7	X8	Y8	Z8	X9	Y9	Z9	X10	Y10	Z10	X11	Y11	Z11	X12	Y12	Z12	X13	Y13	Z13	X14	Y14	Z14	X15	Y15	Z15	X16	Y16	Z16	X17	Y17	Z17	X18	Y18	Z18	X19	Y19	Z19	X20	Y20	Z20	X21	Y21	Z21	X22	Y22	Z22	X23	Y23	Z23	X24	Y24	Z24	X25	Y25	Z25	X26	Y26	Z26	X27	Y27	Z27	X28	Y28	Z28	X29	Y29	Z29	X30	Y30	Z30	X31	Y31	Z31	X32	Y32	Z32	X33	Y33	Z33	X34	Y34	Z34	X35	Y35	Z35	X36	Y36	Z36	X37	Y37	Z37	X38	Y38	Z38	X39	Y39	Z39	X40	Y40	Z40	X41	Y41	Z41	X42	Y42	Z42	X43	Y43	Z43	X44	Y44	Z44	X45	Y45	Z45	X46	Y46	Z46	X47	Y47	Z47	X48	Y48	Z48	X49	Y49	Z49	X50	Y50	Z50	X51	Y51	Z51	X52	Y52	Z52	X53	Y53	Z53	X54	Y54	Z54	X55	Y55	Z55	X56	Y56	Z56	X57	Y57	Z57	X58	Y58	Z58	X59	Y59	Z59	X60	Y60	Z60	X61	Y61	Z61	X62	Y62	Z62	X63	Y63	Z63	X64	Y64	Z64	X65	Y65	Z65	X66	Y66	Z66	X67	Y67	Z67	X68	Y68	Z68	X69	Y69	Z69	X70	Y70	Z70	X71	Y71	Z71	X72	Y72	Z72	X73	Y73	Z73	X74	Y74	Z74
																																																																																																																																																																																																																															
151	18.333	-512.88895	1245.20691	-67.19308	-491.17992	1262.86392	-298.76738	-225.0489	1224.85016	-345.08312	-251.25353	1215.75668	2.80484	-351.66759	1605.91171	-151.44148	-209.93097	1659.74075	-156.41188	-412.57381	1803.97903	-154.41845	-222.53542	1769.90158	-216.86651	-268.65723	1772.46643	-66.68273	-202.11889	1626.0672	-353.97282	-173.2029	1550.67322	-640.00427	-258.48982	1580.27176	-624.78203	-169.82666	1627.82684	-581.16753	-243.04436	1890.2179	-661.07994	-198.42541	1902.90726	-647.41051	-186.72709	1879.70795	-606.26545	-210.567	1583.57544	31.93563	-199.64384	1578.38089	284.58084	-214.58752	1498.58261	324.64775	-297.59035	1823.55804	388.61553	-254.53375	1839.20044	401.91017	-229.79349	1827.84348	353.77567	-401.3966	1057.33261	-434.74392	-356.35754	1014.36974	50.03656	-424.6217	564.37698	-256.90405	-318.33607	579.08947	-324.68666	-363.13557	565.14812	-163.59772	-377.00096	540.21847	-98.64223	-251.72171	554.18491	-37.20428	-251.17197	546.5416	-186.95717	-295.25766	139.28471	-269.27959	-297.33797	153.65639	-189.63385	-215.63585	140.49124	-214.19987	-332.29103	192.4802	-119.66828	-259.66404	184.09687	-75.19895	-295.66404	163.09687	-159.19895	-464.75025	1034.57565	1739.08569	-422.84843	1058.51555	1455.30334	-268.73892	1133.05214	1745.55206	-419.37588	1566.47629	1615.20279	-279.5907	1595.4512	1624.90875	-463.47317	1773.48434	1620.60379	-298.13143	1736.94046	1547.06192	-310.29827	1732.29401	1702.28958	-336.52809	1569.23019	1464.61807	-342.23331	1470.82672	1178.40103	-418.83865	1486.03333	1185.39635	-329.24839	1555.77194	1182.06779	-350.03246	1519.40262	928.06252	-374.81148	1570.65643	926.31012	-419.0274	1542.60315	941.18523	-332.59598	1552.99896	1813.43811	-409.73915	1499.45343	2035.47699	-318.73169	1505.10117	2043.06702	-368.63537	1459.81583	2089.58557	-426.0284	1737.87338	2069.74213	-383.30929	1740.29114	2058.12897	-380.2319	1725.04257	2011.82327	-329.00848	1006.44318	1407.39594	-322.80243	1009.55139	1808.16849	-370.80215	456.29978	1449.60403	-271.01229	491.82533	1422.70126	-279.23296	459.03847	1543.19519	-357.42294	450.13073	1769.44092	-244.8377	486.25858	1786.28235	-315.85501	444.16027	1678.61862	-323.28728	130.98076	1417.8447	-294.61044	127.11108	1482.1701	-243.02267	127.95967	1418.05969	-323.27694	135.10679	1792.06924	-250.67308	124.91166	1806.41785	-293.62089	124.09308	1732.84424	-236.84088	1150.78171	1528.23471	-290.27527	1542.12845	303.01584
152	18.35	-512.47936	1244.92432	-67.31499	-491.12476	1262.69272	-298.81563	-225.0909	1224.93538	-345.29125	-250.902	1215.83328	2.46598	-351.89331	1606.10443	-151.59709	-210.15671	1659.93347	-156.56749	-412.96623	1803.81729	-154.58722	-222.81385	1770.15381	-217.05549	-269.05252	1772.54349	-66.85114	-202.58144	1626.18195	-354.4038	-174.15918	1550.6044	-640.28946	-259.32735	1580.3508	-624.80534	-171.34315	1627.44675	-582.04021	-243.31491	1890.4332	-662.66769	-198.74969	1902.97302	-649.04976	-187.05851	1879.93393	-607.6461	-210.77009	1583.96362	31.77943	-200.11103	1578.72955	284.51944	-214.90082	1498.83331	324.50703	-297.93497	1823.68149	388.93322	-254.91341	1839.34494	402.14993	-230.16336	1828.15125	353.88103	-401.44054	1057.32224	-435.07038	-356.14819	1014.22112	49.92996	-424.47956	564.37599	-256.98845	-318.17104	579.04552	-324.82872	-363.07648	565.21935	-163.6894	-377.0406	540.22377	-99.06516	-251.98112	554.09878	-37.31659	-250.96083	546.49555	-187.05055	-295.19726	139.25529	-269.33685	-297.27278	153.61636	-189.6986	-215.66898	140.44171	-214.15522	-332.37411	192.43795	-119.89367	-259.97213	184.09262	-75.30053	-295.97213	163.09262	-159.30053	-465.13683	1034.48708	1738.89786	-422.68864	1058.64693	1455.21881	-269.16851	1133.01064	1745.65155	-419.18537	1566.47034	1615.31464	-279.31324	1595.42404	1625.11703	-463.33935	1773.46283	1620.92194	-298.00898	1736.9725	1547.00577	-310.06723	1732.20871	1702.52274	-336.43269	1569.12613	1464.6434	-342.52758	1470.0563	1178.52303	-419.23119	1485.45044	1185.63721	-329.44489	1555.0499	1181.98006	-350.80433	1517.95349	928.05428	-375.37483	1569.10355	926.46896	-419.86595	1541.35696	941.40297	-332.57172	1552.96036	1813.43307	-409.93713	1499.59534	2035.41199	-318.97526	1505.14984	2043.14377	-368.91186	1459.9231	2089.71741	-426.03889	1738.01453	2069.81079	-383.31997	1740.37216	2058.08701	-380.24113	1725.11627	2011.89926	-328.71395	1006.48125	1407.43652	-323.17039	1009.44366	1808.00095	-370.71945	456.32084	1449.53094	-270.85876	491.86161	1422.68936	-279.24028	459.06578	1543.19366	-357.49371	450.04585	1769.27139	-244.7773	486.36131	1786.35544	-315.82663	444.09069	1678.54568	-323.321	131.02762	1417.74841	-294.63633	127.1421	1482.18781	-243.01912	128.00245	1418.05389	-323.28388	135.10287	1792.03003	-250.75785	124.8861	1806.36917	-293.62543	124.12527	1732.84027	-236.76683	1150.77469	1528.42453	-290.66713	1542.202	302.83834
153	18.367	-512.09248	1244.64706	-67.46513	-491.05701	1262.53723	-298.89721	-225.09575	1225.06973	-345.56664	-250.59181	1215.97549	2.14099	-352.0108	1606.27823	-151.79815	-210.27416	1660.10712	-156.76855	-413.35045	1803.66364	-154.73869	-223.10873	1770.38544	-217.10995	-269.44248	1772.65717	-66.90734	-202.94191	1626.18088	-354.73221	-175.14416	1550.38788	-640.64995	-260.42456	1580.20828	-625.36064	-171.99991	1627.42767	-582.51759	-243.77575	1890.35797	-663.97568	-198.96992	1902.89764	-650.28854	-187.4614	1879.89838	-609.06044	-210.93939	1584.1452	31.61465	-200.44666	1578.8623	284.38782	-215.04972	1498.97995	324.31667	-298.4433	1823.70804	388.95943	-255.61834	1839.47449	402.23366	-230.85167	1828.30322	353.89793	-401.41018	1057.31522	-435.34203	-355.91675	1014.04053	49.90275	-424.35024	564.37599	-257.13177	-318.03308	578.99925	-324.98405	-363.01567	565.25322	-163.78841	-377.16377	540.23994	-99.43824	-252.20303	554.03954	-37.42001	-250.86319	546.43688	-187.13924	-295.08762	139.21158	-269.44656	-297.23434	153.58127	-189.78954	-215.65115	140.39339	-214.20242	-332.47856	192.41716	-120.10248	-260.19033	184.10622	-75.36674	-296.19033	163.10622	-159.36674	-465.42309	1034.44862	1738.76236	-422.54353	1058.74474	1455.12878	-269.56448	1132.9911	1745.74585	-419.05159	1566.44165	1615.44952	-279.12069	1595.40802	1625.26215	-463.17528	1773.42575	1621.28143	-297.84863	1737.02805	1547.25052	-309.84493	1732.12448	1702.74719	-336.37455	1569.00726	1464.57901	-342.94834	1469.35486	1178.61832	-419.53663	1484.71039	1186.03043	-329.82712	1554.36615	1181.85349	-351.5789	1516.82617	928.07663	-376.34903	1567.89154	926.65329	-420.71915	1539.98947	941.54411	-332.54833	1552.96478	1813.40729	-410.06859	1499.82635	2035.354	-319.21566	1505.32715	2043.23715	-369.07837	1460.07294	2089.77997	-425.84999	1738.30292	2069.77982	-383.32157	1740.56625	2057.72797	-380.1487	1725.26138	2011.87943	-328.4166	1006.50665	1407.38007	-323.59451	1009.30862	1807.7272	-370.67062	456.34468	1449.49814	-270.78846	491.86611	1422.74261	-279.20792	459.11915	1543.237	-357.6276	450.01614	1769.17206	-244.93176	486.34624	1786.37665	-315.78518	444.14192	1678.50891	-323.30654	131.03229	1417.74551	-294.6236	127.19414	1482.20459	-243.03596	128.00409	1418.07648	-323.34259	135.09935	1791.99005	-250.85732	124.92834	1806.40549	-293.64613	124.14412	1732.80579	-236.70551	1150.76492	1528.61465	-290.89558	1542.08832	302.57629
154	18.383	-511.82018	1244.45007	-67.64292	-491.03447	1262.407	-298.95651	-225.09197	1225.21217	-345.81299	-250.39413	1216.04958	1.82428	-352.09553	1606.43311	-152.00647	-210.35889	1660.26215	-156.97687	-413.75217	1803.57269	-154.94106	-223.52549	1770.45792	-217.26181	-269.75275	1772.79984	-67.27802	-203.18029	1626.24756	-355.10078	-176.0206	1549.93759	-641.00555	-261.04065	1579.91867	-625.38197	-171.94206	1627.50366	-582.70119	-244.23225	1890.03311	-664.89677	-199.50932	1902.48764	-651.47057	-187.89858	1879.59717	-610.05825	-211.03554	1584.22516	31.46296	-200.67522	1578.89542	284.11865	-215.1156	1499.06998	324.13452	-299.09733	1823.66119	388.88184	-256.30629	1839.41879	402.14657	-231.74187	1828.37173	353.89694	-401.31565	1057.31361	-435.55058	-355.70484	1013.88367	49.91859	-424.2033	564.408	-257.34619	-317.87212	579.00043	-325.14343	-362.92576	565.25249	-163.93696	-377.25288	540.29026	-99.74878	-252.38842	554.0181	-37.56162	-250.75024	546.40144	-187.2506	-294.98808	139.1995	-269.53899	-297.23364	153.56825	-189.88525	-215.70303	140.33423	-214.17154	-332.60426	192.36513	-120.34415	-260.38761	184.08035	-75.41106	-296.38761	163.08035	-159.41106	-465.63839	1034.48364	1738.65402	-422.43412	1058.80135	1455.0473	-269.84903	1132.98637	1745.8519	-418.92277	1566.41769	1615.56259	-278.27477	1595.58411	1626.36429	-462.89215	1773.41003	1621.65604	-297.6543	1737.12204	1547.379	-309.59736	1732.0401	1702.9689	-336.38649	1568.86002	1464.45343	-343.30093	1468.71597	1178.64799	-419.88609	1484.00391	1186.20857	-330.31544	1553.77228	1181.75392	-352.4456	1515.71533	927.98195	-377.34047	1566.71585	926.53831	-421.5704	1538.62335	941.64574	-332.50122	1552.98126	1813.34579	-410.19886	1500.19333	2035.26932	-319.28354	1505.52002	2043.08319	-369.22749	1460.37155	2089.75159	-425.90733	1738.71918	2069.76151	-383.20602	1740.83817	2057.42264	-379.98646	1725.46982	2011.75491	-328.21255	1006.55594	1407.39426	-323.923	1009.34914	1807.87537	-370.64289	456.32355	1449.46121	-270.7003	491.89312	1422.75894	-279.21083	459.11621	1543.23288	-357.7417	449.96231	1769.04877	-245.01753	486.40034	1786.58615	-315.80948	444.11171	1678.43292	-323.28503	131.0578	1417.70844	-294.6266	127.18972	1482.16858	-242.98407	128.00865	1418.05878	-323.41694	135.11217	1791.88309	-250.92045	124.9287	1806.39633	-293.6381	124.14921	1732.7832	-236.66462	1150.75859	1528.69644	-290.97475	1541.96793	302.30066
